<?xml version="1.0" encoding="iso-8859-1"?>
<!-- Generator: Adobe Illustrator 18.0.0, SVG Export Plug-In . SVG Version: 6.00 Build 0)  -->
<!DOCTYPE svg PUBLIC "-//W3C//DTD SVG 1.1//EN" "http://www.w3.org/Graphics/SVG/1.1/DTD/svg11.dtd">
<svg version="1.1" id="Capa_1" xmlns="http://www.w3.org/2000/svg" xmlns:xlink="http://www.w3.org/1999/xlink" x="0px" y="0px"
	 viewBox="0 0 59.001 59.001" style="enable-background:new 0 0 59.001 59.001;" xml:space="preserve">
<g>
	<path d="M42,53.001h-0.556c0.344-0.591,0.556-1.268,0.556-2c0-2.206-1.794-4-4-4H22c-2.206,0-4,1.794-4,4
		c0,0.732,0.212,1.409,0.556,2H18c-1.654,0-3,1.346-3,3s1.346,3,3,3h24c1.654,0,3-1.346,3-3S43.655,53.001,42,53.001z"/>
	<path d="M17.745,26.121c1.662,0,3.298-1.278,4.142-2.06c0.434,0.176,0.907,0.265,1.417,0.265h0.001c2.136,0,4.513-1.6,6.019-2.822
		c-0.142,5.301-6.343,8.797-6.412,8.835c-0.062,0.034-0.12,0.074-0.173,0.12c-4.979,4.317-4.647,11.801-4.101,15.542h22.074
		c0.118-3.256,1.066-9.861,2.013-14.327l-5.902,5.902c-0.195,0.195-0.451,0.293-0.707,0.293s-0.512-0.098-0.707-0.293
		c-0.391-0.391-0.391-1.023,0-1.414l8.144-8.144c0.273-1.338,0.467-2.653,0.587-3.942l-7.316,7.316
		c-0.195,0.195-0.451,0.293-0.707,0.293s-0.512-0.098-0.707-0.293c-0.391-0.391-0.391-1.023,0-1.414l8.865-8.865
		c0.001-1.088-0.047-2.156-0.161-3.195l-7.29,7.29c-0.195,0.195-0.451,0.293-0.707,0.293s-0.512-0.098-0.707-0.293
		c-0.391-0.391-0.391-1.023,0-1.414l8.314-8.314c-0.253-1.238-0.593-2.431-1.018-3.575l-4.644,4.644
		c-0.195,0.195-0.451,0.293-0.707,0.293s-0.512-0.098-0.707-0.293c-0.391-0.391-0.391-1.023,0-1.414l5.218-5.218
		c-1.254-2.577-2.983-4.852-5.176-6.739c-2.433-2.093-4.386-3.04-4.468-3.079c-0.495-0.238-1.084-0.033-1.327,0.454l-2.604,5.209
		l-3.721-5.334c-0.249-0.358-0.705-0.514-1.12-0.382c-0.417,0.131-0.7,0.518-0.7,0.954v9.525l-8.507,9.968
		c-0.187,0.219-0.27,0.507-0.229,0.791C14.581,25.282,16.356,26.121,17.745,26.121z"/>
</g>
<g>
</g>
<g>
</g>
<g>
</g>
<g>
</g>
<g>
</g>
<g>
</g>
<g>
</g>
<g>
</g>
<g>
</g>
<g>
</g>
<g>
</g>
<g>
</g>
<g>
</g>
<g>
</g>
<g>
</g>
</svg>
